<svg xmlns="http://www.w3.org/2000/svg" viewBox="0 0 18 18">
  <defs>
    <style>
      .cls-1 {
        fill: #616161;
      }
    </style>
  </defs>
  <path id="trash-alt" class="cls-1" d="M0,2.953V1.969a.908.908,0,0,1,.964-.844h4.5L5.842.468A.974.974,0,0,1,6.7,0h4.592a.986.986,0,0,1,.864.468l.378.657h4.5A.908.908,0,0,1,18,1.969v.984a.456.456,0,0,1-.482.422H.482A.456.456,0,0,1,0,2.953ZM16.714,4.922V16.313A1.821,1.821,0,0,1,14.786,18H3.214a1.821,1.821,0,0,1-1.929-1.687V4.922A.456.456,0,0,1,1.768,4.5H16.232A.456.456,0,0,1,16.714,4.922ZM5.786,7.312a.609.609,0,0,0-.643-.562.609.609,0,0,0-.643.563v7.875a.609.609,0,0,0,.643.563.609.609,0,0,0,.643-.562Zm3.857,0a.649.649,0,0,0-1.286,0v7.875a.649.649,0,0,0,1.286,0Zm3.857,0a.649.649,0,0,0-1.286,0v7.875a.649.649,0,0,0,1.286,0Z"/>
</svg>
