<svg xmlns="http://www.w3.org/2000/svg" viewBox="0 0 18 18">
  <defs>
    <style>
      .cls-1 {
        fill: #616161;
      }
    </style>
  </defs>
  <path id="cog" class="cls-1" d="M34.748,18.273l1.616.893a.428.428,0,0,1,.207.508A8.9,8.9,0,0,1,34.5,23.106a.47.47,0,0,1-.562.082L32.321,22.3a7.347,7.347,0,0,1-2.3,1.275v1.785a.44.44,0,0,1-.355.425,9.889,9.889,0,0,1-4.14,0,.441.441,0,0,1-.356-.425V23.57a7.346,7.346,0,0,1-2.3-1.275l-1.614.893a.47.47,0,0,1-.562-.082,8.9,8.9,0,0,1-2.073-3.433.428.428,0,0,1,.207-.508l1.616-.893a6.727,6.727,0,0,1,0-2.548l-1.616-.893a.428.428,0,0,1-.207-.508,8.9,8.9,0,0,1,2.073-3.433.47.47,0,0,1,.562-.082l1.614.893a7.347,7.347,0,0,1,2.3-1.275V8.644a.44.44,0,0,1,.355-.425,9.889,9.889,0,0,1,4.14,0,.441.441,0,0,1,.356.425v1.785a7.346,7.346,0,0,1,2.3,1.275l1.614-.893a.47.47,0,0,1,.562.082,8.9,8.9,0,0,1,2.073,3.433.428.428,0,0,1-.207.508l-1.616.893A6.727,6.727,0,0,1,34.748,18.273ZM30.624,17a3.036,3.036,0,1,0-3.033,2.9A2.973,2.973,0,0,0,30.624,17Z" transform="translate(-18.592 -8)"/>
</svg>
