<svg xmlns="http://www.w3.org/2000/svg" viewBox="0 0 16 18">
  <defs>
    <style>
      .cls-1 {
        fill: #616161;
      }
    </style>
  </defs>
  <path id="copy" class="cls-1" d="M11.429,15.75v1.406a.851.851,0,0,1-.857.844H.857A.851.851,0,0,1,0,17.156V4.219a.851.851,0,0,1,.857-.844H3.429V13.781a1.987,1.987,0,0,0,2,1.969Zm0-12.094V0h-6a.851.851,0,0,0-.857.844V13.781a.851.851,0,0,0,.857.844h9.714A.851.851,0,0,0,16,13.781V4.5H12.286A.853.853,0,0,1,11.429,3.656Zm4.32-1.091L13.394.247A.864.864,0,0,0,12.788,0h-.216V3.375H16V3.162a.837.837,0,0,0-.251-.6Z"/>
</svg>
