<svg xmlns="http://www.w3.org/2000/svg" viewBox="0 0 23 18">
  <defs>
    <style>
      .cls-1 {
        fill: #616161;
      }
    </style>
  </defs>
  <path id="Union_681" data-name="Union 681" class="cls-1" d="M1.656,18a1.625,1.625,0,0,1-1.171-.5A1.711,1.711,0,0,1,0,16.3V6.1A1.711,1.711,0,0,1,.485,4.9a1.625,1.625,0,0,1,1.171-.5H4.351v8.452a1.7,1.7,0,0,0,.485,1.2,1.627,1.627,0,0,0,1.17.5H17.669V16.3a1.711,1.711,0,0,1-.485,1.2,1.625,1.625,0,0,1-1.171.5ZM7,13.523a1.673,1.673,0,0,1-1.655-1.69V1.69A1.673,1.673,0,0,1,7,0h5.517l2.207,2.254h6.62A1.673,1.673,0,0,1,23,3.944v7.889a1.673,1.673,0,0,1-1.655,1.69Z"/>
</svg>
