<svg xmlns="http://www.w3.org/2000/svg" viewBox="0 0 18 18">
  <defs>
    <style>
      .cls-1 {
        fill: #616161;
      }
    </style>
  </defs>
  <g id="_003-database" data-name="003-database" transform="translate(-4.1)">
    <path id="Path_16715" data-name="Path 16715" class="cls-1" d="M14.039,30.117q-.47.017-.938.018c-.313,0-.627-.006-.941-.018a18.493,18.493,0,0,1-6.265-1.134A6.965,6.965,0,0,1,4.1,28v3.925c1.025,1.24,4.462,2.384,9,2.384s7.975-1.144,9-2.384V28a6.98,6.98,0,0,1-1.809.988A18.524,18.524,0,0,1,14.039,30.117Z" transform="translate(0 -16.309)"/>
    <path id="Path_16716" data-name="Path 16716" class="cls-1" d="M4.1,14.889v3.925c.95,1.15,3.972,2.217,8.023,2.367l.126,0c.117,0,.234.008.354.01q.247.005.5.005t.5,0c.119,0,.236-.006.354-.01l.126,0c4.051-.15,7.073-1.217,8.023-2.367V14.889c-1.752,1.4-5.456,2.134-9,2.134S5.852,16.285,4.1,14.889Z" transform="translate(0 -8.672)"/>
    <path id="Path_16717" data-name="Path 16717" class="cls-1" d="M22.051,3.567C21.647,1.771,18.541,0,13.1,0S4.569,1.762,4.153,3.553a.453.453,0,0,0-.053.2v.963C5.121,5.957,8.534,7.1,13.1,7.1s7.979-1.141,9-2.377V3.758A.43.43,0,0,0,22.051,3.567Z"/>
  </g>
</svg>
