<svg xmlns="http://www.w3.org/2000/svg" viewBox="0 0 16 18">
  <defs>
    <style>
      .cls-1 {
        fill: #616161;
      }
    </style>
  </defs>
  <path id="calendar-alt" class="cls-1" d="M15.571,5.625H.429A.427.427,0,0,1,0,5.2V3.938A1.7,1.7,0,0,1,1.714,2.25H3.429V.422A.427.427,0,0,1,3.857,0H5.286a.427.427,0,0,1,.429.422V2.25h4.571V.422A.427.427,0,0,1,10.714,0h1.429a.427.427,0,0,1,.429.422V2.25h1.714A1.7,1.7,0,0,1,16,3.938V5.2A.427.427,0,0,1,15.571,5.625ZM.429,6.75H15.571A.427.427,0,0,1,16,7.172v9.141A1.7,1.7,0,0,1,14.286,18H1.714A1.7,1.7,0,0,1,0,16.313V7.172A.427.427,0,0,1,.429,6.75Zm4.143,7.172a.427.427,0,0,0-.429-.422H2.714a.427.427,0,0,0-.429.422v1.406a.427.427,0,0,0,.429.422H4.143a.427.427,0,0,0,.429-.422Zm0-4.5A.427.427,0,0,0,4.143,9H2.714a.427.427,0,0,0-.429.422v1.406a.427.427,0,0,0,.429.422H4.143a.427.427,0,0,0,.429-.422Zm4.571,4.5a.427.427,0,0,0-.429-.422H7.286a.427.427,0,0,0-.429.422v1.406a.427.427,0,0,0,.429.422H8.714a.427.427,0,0,0,.429-.422Zm0-4.5A.427.427,0,0,0,8.714,9H7.286a.427.427,0,0,0-.429.422v1.406a.427.427,0,0,0,.429.422H8.714a.427.427,0,0,0,.429-.422Zm4.571,4.5a.427.427,0,0,0-.429-.422H11.857a.427.427,0,0,0-.429.422v1.406a.427.427,0,0,0,.429.422h1.429a.427.427,0,0,0,.429-.422Zm0-4.5A.427.427,0,0,0,13.286,9H11.857a.427.427,0,0,0-.429.422v1.406a.427.427,0,0,0,.429.422h1.429a.427.427,0,0,0,.429-.422Z"/>
</svg>
