<svg id="Group_6394" data-name="Group 6394" xmlns="http://www.w3.org/2000/svg" viewBox="0 0 18 18">
  <defs>
    <style>
      .cls-1 {
        fill: #616161;
      }
    </style>
  </defs>
  <g id="Group_6393" data-name="Group 6393">
    <path id="Path_16669" data-name="Path 16669" class="cls-1" d="M342.258,170.967a.3.3,0,0,0-.3-.3h-.6v.6h.6A.3.3,0,0,0,342.258,170.967Z" transform="translate(-329.357 -164.667)"/>
    <path id="Path_16670" data-name="Path 16670" class="cls-1" d="M17.1,0H.9A.9.9,0,0,0,0,.9V2.4H18V.9A.9.9,0,0,0,17.1,0ZM1.5,1.8a.3.3,0,1,1,.3-.3A.3.3,0,0,1,1.5,1.8Zm1.2,0A.3.3,0,1,1,3,1.5.3.3,0,0,1,2.7,1.8Zm1.2,0a.3.3,0,1,1,.3-.3A.3.3,0,0,1,3.9,1.8Z"/>
    <path id="Path_16671" data-name="Path 16671" class="cls-1" d="M0,99.433a.9.9,0,0,0,.9.9H17.1a.9.9,0,0,0,.9-.9v-14.1H0Zm14.4-11.1h.3v-.6a.3.3,0,0,1,.6,0v.6h.3a.3.3,0,0,1,0,.6h-.3v1.2a.6.6,0,0,0,.6.6.3.3,0,0,1,0,.6,1.2,1.2,0,0,1-1.2-1.2v-1.2h-.3a.3.3,0,0,1,0-.6Zm-3,.9v-1.2a.3.3,0,0,1,.3-.3h.9a.9.9,0,0,1,0,1.8H12v1.5a.3.3,0,1,1-.6,0v-1.8Zm-.9-1.5a.3.3,0,1,1-.3.3A.3.3,0,0,1,10.5,87.733Zm-.3,1.5a.3.3,0,0,1,.6,0v1.8a.3.3,0,1,1-.6,0Zm-2.1-.6a.3.3,0,0,1,.574-.119,1.189,1.189,0,0,1,.626-.181.3.3,0,0,1,0,.6.6.6,0,0,0-.6.6v1.5a.3.3,0,1,1-.6,0Zm4.4,6.13a.3.3,0,0,1,0,.558L10.8,96l2.012,2.012a.3.3,0,1,1-.424.424l-2.012-2.012-.679,1.7a.3.3,0,0,1-.278.189h0a.3.3,0,0,1-.278-.191L7.229,93.242a.3.3,0,0,1,.389-.389Zm-6.2-6.43a1.5,1.5,0,0,1,1.125.508.3.3,0,0,1-.45.4.9.9,0,1,0,0,1.19.3.3,0,0,1,.45.4A1.5,1.5,0,1,1,6.3,88.333ZM3,89.533a1.2,1.2,0,1,1,1.2-1.2.3.3,0,1,1-.6,0,.6.6,0,1,0-.6.6,1.2,1.2,0,1,1-1.2,1.2.3.3,0,0,1,.6,0,.6.6,0,1,0,.6-.6Z" transform="translate(0 -82.333)"/>
    <path id="Path_16672" data-name="Path 16672" class="cls-1" d="M230.589,324.372h0a.3.3,0,0,1,.063-.1l.006-.007a.3.3,0,0,1,.1-.064h0l1.417-.567-3.534-1.383,1.383,3.535Z" transform="translate(-220.601 -310.926)"/>
  </g>
</svg>
