<svg xmlns="http://www.w3.org/2000/svg" viewBox="0 0 22.999 18">
  <defs>
    <style>
      .cls-1 {
        fill: #616161;
      }
    </style>
  </defs>
  <path id="Union_610" data-name="Union 610" class="cls-1" d="M-9164.777,1168a.684.684,0,0,1-.668-.7.683.683,0,0,1,.668-.7h2l.444-1.406h-5.334a1.372,1.372,0,0,1-1.332-1.406v-9.377a1.372,1.372,0,0,1,1.332-1.406h13.335a1.265,1.265,0,0,1,.44.079A4,4,0,0,1-9150,1150a4,4,0,0,1,4,4,4,4,0,0,1-4,4,3.991,3.991,0,0,1-3-1.355v7.138a1.371,1.371,0,0,1-1.332,1.406h-5.334l.444,1.406h2a.683.683,0,0,1,.667.7.684.684,0,0,1-.667.7Zm-2.446-6.563h12.446v-6.563h-12.446Zm18.273-5.477a.193.193,0,0,0,.273,0l.638-.637a.2.2,0,0,0,0-.274L-9149.1,1154l1.059-1.049a.193.193,0,0,0,0-.274l-.64-.637a.193.193,0,0,0-.273,0l-1.05,1.056-1.049-1.058a.194.194,0,0,0-.274,0l-.638.637a.2.2,0,0,0,0,.276l1.057,1.049-1.057,1.047a.2.2,0,0,0,0,.276l.636.637a.2.2,0,0,0,.276,0l1.049-1.058Z" transform="translate(9169 -1150)"/>
</svg>
