<svg xmlns="http://www.w3.org/2000/svg" viewBox="0 0 23 18">
  <defs>
    <style>
      .cls-1 {
        fill: #616161;
      }
    </style>
  </defs>
  <path id="Union_609" data-name="Union 609" class="cls-1" d="M-9150.616,1167.75l-3.128-3.074a.857.857,0,0,1,.617-1.464h1.673v-10.783a.432.432,0,0,1,.438-.428h2.034a.43.43,0,0,1,.435.428v10.783h1.673a.856.856,0,0,1,.619,1.464l-3.127,3.074a.881.881,0,0,1-.617.25A.878.878,0,0,1-9150.616,1167.75Zm-14.161-2.75a.683.683,0,0,1-.668-.7.684.684,0,0,1,.668-.7h2l.444-1.406h-5.334a1.372,1.372,0,0,1-1.332-1.406v-9.375a1.371,1.371,0,0,1,1.332-1.406h13.335a1.369,1.369,0,0,1,1.332,1.406v9.375a1.371,1.371,0,0,1-1.332,1.406h-5.334l.444,1.406h2a.684.684,0,0,1,.667.7.683.683,0,0,1-.667.7Zm-2.446-6.563h12.446v-6.563h-12.446Z" transform="translate(9169 -1150)"/>
</svg>
