<svg xmlns="http://www.w3.org/2000/svg" viewBox="0 0 21 18">
  <defs>
    <style>
      .cls-1 {
        fill: #616161;
      }
    </style>
  </defs>
  <path id="cogs" class="cls-1" d="M16.8,6.846l-.269.5a.393.393,0,0,1-.5.19,3.575,3.575,0,0,1-1.053-.656.461.461,0,0,1-.092-.554l.269-.5a3.106,3.106,0,0,1-.522-.967h-.541a.415.415,0,0,1-.4-.363,4.268,4.268,0,0,1,0-1.309.418.418,0,0,1,.4-.367h.541a3.106,3.106,0,0,1,.522-.967l-.269-.5A.456.456,0,0,1,14.978.8,3.618,3.618,0,0,1,16.031.14a.393.393,0,0,1,.5.19l.269.5a2.716,2.716,0,0,1,1.04,0l.269-.5a.393.393,0,0,1,.5-.19A3.575,3.575,0,0,1,19.654.8a.461.461,0,0,1,.092.554l-.269.5A3.106,3.106,0,0,1,20,2.821h.541a.415.415,0,0,1,.4.363,4.268,4.268,0,0,1,0,1.309.418.418,0,0,1-.4.367H20a3.106,3.106,0,0,1-.522.967l.269.5a.456.456,0,0,1-.092.554,3.618,3.618,0,0,1-1.053.656.393.393,0,0,1-.5-.19l-.269-.5A2.716,2.716,0,0,1,16.8,6.846Zm-.345-2.074c1.263,1.044,2.7-.5,1.733-1.863C16.92,1.862,15.48,3.414,16.451,4.772ZM12.667,10.2l1.106.593a.879.879,0,0,1,.345,1.027,8.419,8.419,0,0,1-1.4,2.321.747.747,0,0,1-.994.187l-.955-.593a5.556,5.556,0,0,1-1.8,1.118v1.185a.83.83,0,0,1-.646.832,6.873,6.873,0,0,1-2.491,0,.832.832,0,0,1-.656-.832V14.853a5.617,5.617,0,0,1-1.8-1.118l-.955.589a.748.748,0,0,1-.994-.187A8.413,8.413,0,0,1,.04,11.82a.883.883,0,0,1,.345-1.027L1.477,10.2a6.562,6.562,0,0,1,0-2.236l-1.093-.6A.872.872,0,0,1,.04,6.345,8.38,8.38,0,0,1,1.425,4.024a.747.747,0,0,1,.994-.187l.955.593a5.556,5.556,0,0,1,1.8-1.118V2.123a.826.826,0,0,1,.643-.829,6.969,6.969,0,0,1,2.494,0,.832.832,0,0,1,.656.832V3.308a5.617,5.617,0,0,1,1.8,1.118l.955-.593a.748.748,0,0,1,.994.187A8.371,8.371,0,0,1,14.1,6.341a.875.875,0,0,1-.328,1.027l-1.106.593A6.582,6.582,0,0,1,12.667,10.2Zm-3.859.744c1.943-2.716-.942-5.817-3.469-3.729C3.4,9.932,6.282,13.033,8.808,10.945ZM16.8,17.39l-.269.5a.393.393,0,0,1-.5.19,3.575,3.575,0,0,1-1.053-.656.461.461,0,0,1-.092-.554l.269-.5a3.106,3.106,0,0,1-.522-.967h-.541a.415.415,0,0,1-.4-.363,4.268,4.268,0,0,1,0-1.309.418.418,0,0,1,.4-.367h.541a3.106,3.106,0,0,1,.522-.967l-.269-.5a.456.456,0,0,1,.092-.554,3.618,3.618,0,0,1,1.053-.656.393.393,0,0,1,.5.19l.269.5a2.716,2.716,0,0,1,1.04,0l.269-.5a.393.393,0,0,1,.5-.19,3.575,3.575,0,0,1,1.053.656.461.461,0,0,1,.092.554l-.269.5a3.106,3.106,0,0,1,.522.967h.541a.415.415,0,0,1,.4.363,4.268,4.268,0,0,1,0,1.309.418.418,0,0,1-.4.367H20a3.106,3.106,0,0,1-.522.967l.269.5a.456.456,0,0,1-.092.554,3.618,3.618,0,0,1-1.053.656.393.393,0,0,1-.5-.19l-.269-.5A2.716,2.716,0,0,1,16.8,17.39Zm-.345-2.078c1.263,1.044,2.7-.5,1.733-1.863C16.92,12.405,15.48,13.954,16.451,15.312Z" transform="translate(0.009 -0.112)"/>
</svg>
