<svg xmlns="http://www.w3.org/2000/svg" viewBox="0 0 14 18">
  <defs>
    <style>
      .cls-1 {
        fill: #616161;
      }
    </style>
  </defs>
  <g id="_001-file" data-name="001-file" transform="translate(-6.5)">
    <path id="Path_16718" data-name="Path 16718" class="cls-1" d="M6.5,41v4.655a.754.754,0,0,0,.766.621H19.734a.754.754,0,0,0,.766-.621V41Zm4.044,3.414a1.241,1.241,0,1,1,1.244-1.241A1.244,1.244,0,0,1,10.544,44.414Zm3.111,0A1.241,1.241,0,1,1,14.9,43.172,1.244,1.244,0,0,1,13.656,44.414Zm3.111,0a1.241,1.241,0,1,1,1.244-1.241A1.244,1.244,0,0,1,16.767,44.414Z" transform="translate(0 -28.276)"/>
    <path id="Path_16719" data-name="Path 16719" class="cls-1" d="M20.5,12.1V4.338a.716.716,0,0,0-.171-.556L16.708.171A.589.589,0,0,0,16.3,0H7.266A.805.805,0,0,0,6.5.908V12.1ZM16.144,1.052A.16.16,0,0,1,16.417.94l3.141,3.133a.159.159,0,0,1-.113.272h-3.3Z" transform="translate(0)"/>
  </g>
</svg>
