<svg xmlns="http://www.w3.org/2000/svg" viewBox="0 0 18 18">
  <defs>
    <style>
      .cls-1 {
        fill: #616161;
      }
    </style>
  </defs>
  <g id="_003-font-window" data-name="003-font-window" transform="translate(0 -0.222)">
    <path id="Path_16721" data-name="Path 16721" class="cls-1" d="M16.589.222H1.411A1.413,1.413,0,0,0,0,1.634V16.81a1.413,1.413,0,0,0,1.411,1.412H16.589A1.413,1.413,0,0,0,18,16.81V1.634A1.413,1.413,0,0,0,16.589.222Zm-.956,1.607a.605.605,0,1,1-.6.605A.6.6,0,0,1,15.633,1.829Zm-2.166,0a.605.605,0,1,1-.6.605A.6.6,0,0,1,13.467,1.829Zm2.921,14.78H1.612V4.541H16.388V16.609ZM4.55,13.581H4.44q-.543,0-.544-.173a1.962,1.962,0,0,1,.34-.69l.553-.88H7.514l.169.9a3.735,3.735,0,0,1,.075.633q0,.212-.641.212H6.98l-.058.274H9.375l.057-.274-.11,0A.6.6,0,0,1,8.86,13.4a2.209,2.209,0,0,1-.232-.756L7.581,7.2H7.259L3.843,12.728a5.32,5.32,0,0,1-.523.745,1.064,1.064,0,0,1-.515.1l-.084,0-.053.274H4.493ZM6.863,8.376l.57,3.078H4.965Zm4.221,5.59a1.993,1.993,0,0,0,1.257-.582,5.783,5.783,0,0,0,1.224-1.553l-.4,2.025h1.69l.053-.274-.079,0a3.164,3.164,0,0,1-.552-.062q-.084-.031-.084-.172a3.183,3.183,0,0,1,.075-.633l.719-3.657h-.869q-.269-.055-.463-.083a2.345,2.345,0,0,0-.318-.028,2.846,2.846,0,0,0-2.184,1.237,4.149,4.149,0,0,0-1.01,2.676,1.26,1.26,0,0,0,.236.832A.875.875,0,0,0,11.083,13.966Zm.212-2.724a4.539,4.539,0,0,1,.559-1.273,1.243,1.243,0,0,1,1.069-.6,2.331,2.331,0,0,1,.554.065,2.24,2.24,0,0,1,.524.2L13.7,11.171q-1.368,2.14-2.21,2.14a.356.356,0,0,1-.318-.159.872.872,0,0,1-.105-.478A5.155,5.155,0,0,1,11.3,11.242Z"/>
  </g>
</svg>
