<svg xmlns="http://www.w3.org/2000/svg" viewBox="0 0 18 18">
  <defs>
    <style>
      .cls-1 {
        fill: #616161;
      }
    </style>
  </defs>
  <path id="history" class="cls-1" d="M26,16.983a9,9,0,0,1-14.648,7.024.87.87,0,0,1-.067-1.292l.409-.409a.873.873,0,0,1,1.157-.072,6.678,6.678,0,1,0-.426-10.1l1.842,1.842a.581.581,0,0,1-.411.991H8.581A.581.581,0,0,1,8,14.387V9.111A.581.581,0,0,1,8.991,8.7l1.792,1.792A9,9,0,0,1,26,16.983Zm-6.565,2.859.356-.458a.871.871,0,0,0-.153-1.222l-1.477-1.149V13.226a.871.871,0,0,0-.871-.871H16.71a.871.871,0,0,0-.871.871v4.923l2.374,1.846A.871.871,0,0,0,19.435,19.842Z" transform="translate(-8 -8)"/>
</svg>
