<svg xmlns="http://www.w3.org/2000/svg" viewBox="0 0 20 17.998">
  <defs>
    <style>
      .cls-1 {
        fill: #616161;
      }
    </style>
  </defs>
  <path id="Path_16691" data-name="Path 16691" class="cls-1" d="M19.51,37.051a1.576,1.576,0,0,0-1.177-.508H1.667a1.577,1.577,0,0,0-1.177.508A1.7,1.7,0,0,0,0,38.274V50.042a1.7,1.7,0,0,0,.49,1.222,1.576,1.576,0,0,0,1.177.508H7.333a2.338,2.338,0,0,1-.167.844,7.793,7.793,0,0,1-.333.757,1.227,1.227,0,0,0-.167.476.677.677,0,0,0,.2.487.629.629,0,0,0,.469.206h5.333a.629.629,0,0,0,.469-.206.677.677,0,0,0,.2-.487,1.269,1.269,0,0,0-.167-.47,8.088,8.088,0,0,1-.333-.768,2.356,2.356,0,0,1-.167-.838h5.667a1.575,1.575,0,0,0,1.177-.508A1.7,1.7,0,0,0,20,50.042V38.274A1.7,1.7,0,0,0,19.51,37.051Zm-.844,10.221a.339.339,0,0,1-.1.243.315.315,0,0,1-.234.1H1.667a.315.315,0,0,1-.234-.1.34.34,0,0,1-.1-.243v-9a.339.339,0,0,1,.1-.243.315.315,0,0,1,.234-.1H18.333a.314.314,0,0,1,.234.1c.066.069.1.15.1,9.242Z" transform="translate(0 -36.543)"/>
</svg>
