<svg xmlns="http://www.w3.org/2000/svg" viewBox="0 0 18 18">
  <defs>
    <style>
      .cls-1 {
        fill: #616161;
      }
    </style>
  </defs>
  <path id="sign-in-alt" class="cls-1" d="M14.625,81.631H11.672a.5.5,0,0,1-.422-.551V79.243a.5.5,0,0,1,.422-.551h2.953a1.331,1.331,0,0,0,1.125-1.469V68.408a1.331,1.331,0,0,0-1.125-1.469H11.672a.5.5,0,0,1-.422-.551V64.551A.5.5,0,0,1,11.672,64h2.953C16.488,64,18,65.974,18,68.408v8.815C18,79.656,16.488,81.631,14.625,81.631ZM12.973,72.4,7.066,64.689c-.527-.689-1.441-.207-1.441.781v4.408H.844A1,1,0,0,0,0,70.979v4.408a1,1,0,0,0,.844,1.1H5.625V80.9c0,.987.914,1.469,1.441.781l5.906-7.713A1.365,1.365,0,0,0,12.973,72.4Z" transform="translate(0 -64)"/>
</svg>
