<svg xmlns="http://www.w3.org/2000/svg" viewBox="0 0 21.5 17.998">
  <defs>
    <style>
      .cls-1 {
        fill: #616161;
      }
    </style>
  </defs>
  <path id="Union_682" data-name="Union 682" class="cls-1" d="M7.333,18a.634.634,0,0,1-.469-.206.682.682,0,0,1-.2-.487,1.213,1.213,0,0,1,.167-.475,7.885,7.885,0,0,0,.333-.757,2.357,2.357,0,0,0,.166-.844H1.667A1.585,1.585,0,0,1,.49,14.721,1.708,1.708,0,0,1,0,13.5V1.731A1.707,1.707,0,0,1,.49.509,1.582,1.582,0,0,1,1.667,0H18.333A1.582,1.582,0,0,1,19.51.509,1.707,1.707,0,0,1,20,1.731V8a4.989,4.989,0,0,0-1.335-.716c-.009-5.7-.042-5.738-.1-5.8a.314.314,0,0,0-.234-.1H1.667a.32.32,0,0,0-.235.1.341.341,0,0,0-.1.243v9a.341.341,0,0,0,.1.243.317.317,0,0,0,.235.1H12.085a5.008,5.008,0,0,0,1.1,4.153h-.516a2.382,2.382,0,0,0,.167.839,8.107,8.107,0,0,0,.334.768,1.275,1.275,0,0,1,.166.47.679.679,0,0,1-.2.487.631.631,0,0,1-.469.206Zm9.247-2.1a.2.2,0,0,1-.158-.189V14.92a3.248,3.248,0,0,1-1.023-.567l-.717.4a.21.21,0,0,1-.25-.036,3.962,3.962,0,0,1-.922-1.525.191.191,0,0,1,.092-.226l.718-.4a2.994,2.994,0,0,1,0-1.132l-.718-.4a.19.19,0,0,1-.092-.225,3.948,3.948,0,0,1,.922-1.525.21.21,0,0,1,.25-.037l.717.4a3.266,3.266,0,0,1,1.023-.567V8.286A.2.2,0,0,1,16.58,8.1a4.389,4.389,0,0,1,1.84,0,.2.2,0,0,1,.158.189v.793a3.266,3.266,0,0,1,1.023.567l.717-.4a.21.21,0,0,1,.25.037,3.959,3.959,0,0,1,.922,1.525.189.189,0,0,1-.093.225l-.717.4a2.994,2.994,0,0,1,0,1.132l.717.4a.19.19,0,0,1,.093.226,3.973,3.973,0,0,1-.922,1.525.21.21,0,0,1-.25.036l-.717-.4a3.248,3.248,0,0,1-1.023.567v.793a.2.2,0,0,1-.158.189,4.389,4.389,0,0,1-1.84,0ZM16.152,12A1.349,1.349,0,1,0,17.5,10.709,1.321,1.321,0,0,0,16.152,12Z"/>
</svg>
