<svg xmlns="http://www.w3.org/2000/svg" viewBox="0 0 16 18">
  <defs>
    <style>
      .cls-1 {
        fill: #616161;
      }
    </style>
  </defs>
  <g id="_001-net-folder" data-name="001-net-folder" transform="translate(-32)">
    <path id="Path_16666" data-name="Path 16666" class="cls-1" d="M32,166.75a1.134,1.134,0,0,0,1.143,1.125h5.714V169H37.714a.567.567,0,0,0-.571.563H34.857a1.125,1.125,0,1,0,0,2.25h2.286a.567.567,0,0,0,.571.563h4.571a.567.567,0,0,0,.571-.562h2.286a1.125,1.125,0,1,0,0-2.25H42.857a.567.567,0,0,0-.571-.562H41.143v-1.125h5.714A1.134,1.134,0,0,0,48,166.75V160H32Z" transform="translate(0 -154.375)"/>
    <path id="Path_16667" data-name="Path 16667" class="cls-1" d="M46.857,2.25H40.571a2.3,2.3,0,0,1-1.616-.659L38.008.659A2.3,2.3,0,0,0,36.392,0H33.143A1.134,1.134,0,0,0,32,1.125V4.5H48V3.375A1.134,1.134,0,0,0,46.857,2.25Z"/>
  </g>
</svg>
