<svg xmlns="http://www.w3.org/2000/svg" viewBox="0 0 18 18">
  <defs>
    <style>
      .cls-1 {
        fill: #616161;
      }
    </style>
  </defs>
  <path id="sign-out-alt" class="cls-1" d="M17.751,73.775l-6,7.874c-.536.7-1.464.211-1.464-.8v-4.5H5.429a1.016,1.016,0,0,1-.857-1.125v-4.5A1.016,1.016,0,0,1,5.429,69.6h4.857V65.1c0-1,.925-1.5,1.464-.8l6,7.874A1.4,1.4,0,0,1,17.751,73.775ZM6.857,81.414V79.54a.511.511,0,0,0-.429-.562h-3a1.357,1.357,0,0,1-1.143-1.5v-9a1.357,1.357,0,0,1,1.143-1.5h3a.511.511,0,0,0,.429-.562V64.542a.511.511,0,0,0-.429-.562h-3C1.536,63.98,0,66,0,68.479v9c0,2.484,1.536,4.5,3.429,4.5h3A.511.511,0,0,0,6.857,81.414Z" transform="translate(0 -63.979)"/>
</svg>
