<svg xmlns="http://www.w3.org/2000/svg" viewBox="0 0 18 18">
  <defs>
    <style>
      .cls-1 {
        fill: #616161;
      }
    </style>
  </defs>
  <path id="align-left" class="cls-1" d="M11.571,28.632v1.579a.637.637,0,0,1-.643.632H.643A.637.637,0,0,1,0,30.211V28.632A.637.637,0,0,1,.643,28H10.929A.637.637,0,0,1,11.571,28.632ZM0,33.684v1.579a.637.637,0,0,0,.643.632H17.357A.637.637,0,0,0,18,35.263V33.684a.637.637,0,0,0-.643-.632H.643A.637.637,0,0,0,0,33.684ZM.643,46H17.357A.637.637,0,0,0,18,45.368V43.789a.637.637,0,0,0-.643-.632H.643A.637.637,0,0,0,0,43.789v1.579A.637.637,0,0,0,.643,46Zm10.286-7.895H.643A.637.637,0,0,0,0,38.737v1.579a.637.637,0,0,0,.643.632H10.929a.637.637,0,0,0,.643-.632V38.737A.637.637,0,0,0,10.929,38.105Z" transform="translate(0 -28)"/>
</svg>
