<svg xmlns="http://www.w3.org/2000/svg" viewBox="0 0 18 18">
  <defs>
    <style>
      .cls-1 {
        fill: #616161;
      }
    </style>
  </defs>
  <path id="sync" class="cls-1" d="M15.492.442l.139,2.91A8.712,8.712,0,0,0,.432,7.377a.422.422,0,0,0,.415.5H2.571a.422.422,0,0,0,.41-.326,6.184,6.184,0,0,1,11.146-2L10.56,5.377a.422.422,0,0,0-.442.421V7.465a.422.422,0,0,0,.422.422h7.038A.422.422,0,0,0,18,7.465V.422A.422.422,0,0,0,17.578,0H15.913A.422.422,0,0,0,15.492.442Zm-6.5,14.745a6.173,6.173,0,0,1-5.133-2.735l3.579.171a.422.422,0,0,0,.442-.421V10.535a.422.422,0,0,0-.422-.422H.422A.422.422,0,0,0,0,10.535v7.043A.422.422,0,0,0,.422,18H2.086a.422.422,0,0,0,.421-.443l-.145-2.9a8.712,8.712,0,0,0,15.194-4.031.422.422,0,0,0-.415-.5H15.417a.422.422,0,0,0-.41.326A6.182,6.182,0,0,1,8.994,15.188Z"/>
</svg>
