<svg xmlns="http://www.w3.org/2000/svg" viewBox="0 0 25 18">
  <defs>
    <style>
      .cls-1 {
        fill: #616161;
      }
    </style>
  </defs>
  <g id="Group_6498" data-name="Group 6498" transform="translate(6076 4545)">
    <g id="_002-usb-connection-to-the-cloud" data-name="002-usb-connection-to-the-cloud" transform="translate(-6076 -4545)">
      <g id="Group_6392" data-name="Group 6392">
        <path id="Path_16668" data-name="Path 16668" class="cls-1" d="M20,18.81a.615.615,0,0,1-.447-.257,5.443,5.443,0,0,0-4.4-2.3q-.167,0-.333.01a.605.605,0,0,1-.41-.128,5.976,5.976,0,0,0-3.688-1.272A6.111,6.111,0,0,0,5.18,18.484a.621.621,0,0,1-.475.359,5.643,5.643,0,0,0,.756,11.2H7.467v1.432a1.366,1.366,0,0,0,1.345,1.386h6.537V31.8h2.256a1.366,1.366,0,0,0,1.345-1.386V27.477a1.366,1.366,0,0,0-1.345-1.386H15.349V25.022H8.812a1.366,1.366,0,0,0-1.345,1.386v1.422H5.461a3.413,3.413,0,0,1,0-6.822c.092,0,.183.008.273.015a1.08,1.08,0,0,0,1.13-.835,4,4,0,0,1,3.858-3.1,3.9,3.9,0,0,1,2.781,1.17,1.055,1.055,0,0,0,.971.292,3.23,3.23,0,0,1,.679-.072A3.28,3.28,0,0,1,18.131,20.4a1.068,1.068,0,0,0,1.076.621,3.257,3.257,0,0,1,.332-.017,3.417,3.417,0,0,1,.488,6.781v2.234A5.644,5.644,0,0,0,20,18.81Zm-4.646,8.668H17.3a.306.306,0,0,1,.3.31V30.1a.306.306,0,0,1-.3.31H15.349V27.477Z" transform="translate(0 -14.865)"/>
        <rect id="Rectangle_29623" data-name="Rectangle 29623" class="cls-1" width="0.747" height="0.587" transform="translate(16.11 13.199)"/>
        <rect id="Rectangle_29624" data-name="Rectangle 29624" class="cls-1" width="0.747" height="0.587" transform="translate(16.11 14.372)"/>
      </g>
    </g>
  </g>
</svg>
