<svg xmlns="http://www.w3.org/2000/svg" viewBox="9210 -76 158.757 32">
  <defs>
    <style>
      .cls-1, .cls-3, .cls-4 {
        fill: #fff;
      }

      .cls-1 {
        stroke: #fff;
        stroke-miterlimit: 10;
        stroke-width: 2px;
      }

      .cls-2 {
        fill: #0f73a5;
      }

      .cls-4 {
        font-size: 9px;
        font-family: Roboto-Regular, Roboto;
        opacity: 0.796;
      }
    </style>
  </defs>
  <g id="Group_5883" data-name="Group 5883" transform="translate(9163 -84)">
    <g id="LoginAM_logo_only" data-name="LoginAM_logo only" transform="translate(46 6.7)">
      <ellipse id="Ellipse_3472" data-name="Ellipse 3472" class="cls-1" cx="14.995" cy="15" rx="14.995" ry="15" transform="translate(2 2.3)"/>
      <path id="Path_16379" data-name="Path 16379" class="cls-2" d="M16.995,2.3A15,15,0,0,0,2,17.274a15.213,15.213,0,0,0,.231,2.573l8.783-11.1a.466.466,0,0,1,.376-.173h2.918a.453.453,0,0,1,.4.26l4.565,11.043L23.842,8.833a.409.409,0,0,1,.4-.26h2.86a.444.444,0,0,1,.433.434V23.316a.444.444,0,0,1-.433.434H25.113a.444.444,0,0,1-.433-.434V13.545l-4.1,9.973a.409.409,0,0,1-.4.26H18.382a.453.453,0,0,1-.4-.26l-4.1-9.973v9.8a.444.444,0,0,1-.433.434H11.448a.444.444,0,0,1-.433-.434V12.793l-3.38,4.249h2.658a.444.444,0,0,1,.433.434v1.5a.444.444,0,0,1-.433.434H5.756L3.04,22.824A15.013,15.013,0,1,0,16.995,2.3Z" transform="translate(0 0)"/>
    </g>
    <g id="Group_5794" data-name="Group 5794" transform="translate(0 -2)">
      <path id="Union_604" data-name="Union 604" class="cls-3" d="M12733.79,15598l-9.759-12.582V15598h-1.53v-15h1.706l9.76,12.581V15583h1.534v15Zm-15.791,0v-15h1.5v15Zm-17-7.5a7.6,7.6,0,0,1,7.919-7.5,8.4,8.4,0,0,1,5.426,1.973l-1.006,1.026a6.84,6.84,0,0,0-4.42-1.625,6.209,6.209,0,0,0-6.342,6.126,6.13,6.13,0,0,0,6.256,6.088,7.2,7.2,0,0,0,4.682-1.633v-3.512h-4.639v-1.115H12715v5.445a9.506,9.506,0,0,1-6.169,2.228A7.658,7.658,0,0,1,12701,15590.5Zm-17,0a7.5,7.5,0,1,1,7.5,7.5A7.485,7.485,0,0,1,12684,15590.5Zm1.507,0a5.992,5.992,0,1,0,5.989-6.087A6,6,0,0,0,12685.508,15590.5ZM12672,15598v-15h1.53v13.592H12682V15598Z" transform="translate(-12573.996 -15570)"/>
      <text id="group" class="cls-4" transform="translate(98.004 37.999)"><tspan x="0" y="0">Home page</tspan></text>
      <path id="Path_16387" data-name="Path 16387" class="cls-3" d="M453.527,372.41l-1.372-3.309h-6.928l-1.369,3.309H440.55l6.313-15H450.5l6.349,15Zm-2.136-5.539-2.712-6.38-2.689,6.38Z" transform="translate(-271.55 -344.41)"/>
      <path id="Path_16388" data-name="Path 16388" class="cls-3" d="M512.823,372.41V361.093l-5.672,9.56h-1.025l-5.675-9.563v11.317H497.71v-15h3.677l5.248,8.759,5.252-8.759h3.677v15Z" transform="translate(-309.807 -344.41)"/>
    </g>
  </g>
</svg>
