<?xml version="1.0" encoding="UTF-8" standalone="no"?>
<!-- Created with Inkscape (http://www.inkscape.org/) -->

<svg
   xmlns:dc="http://purl.org/dc/elements/1.1/"
   xmlns:cc="http://creativecommons.org/ns#"
   xmlns:rdf="http://www.w3.org/1999/02/22-rdf-syntax-ns#"
   xmlns:svg="http://www.w3.org/2000/svg"
   xmlns="http://www.w3.org/2000/svg"
   xmlns:sodipodi="http://sodipodi.sourceforge.net/DTD/sodipodi-0.dtd"
   xmlns:inkscape="http://www.inkscape.org/namespaces/inkscape"
   width="27.478033mm"
   height="27.484388mm"
   viewBox="0 0 27.478034 27.484388"
   version="1.1"
   id="svg3724"
   inkscape:version="0.92.1 r15371"
   sodipodi:docname="am-logo-icon.svg">
  <defs
     id="defs3718" />
  <sodipodi:namedview
     id="base"
     pagecolor="#ffffff"
     bordercolor="#666666"
     borderopacity="1.0"
     inkscape:pageopacity="0.0"
     inkscape:pageshadow="2"
     inkscape:zoom="6.4"
     inkscape:cx="25.599142"
     inkscape:cy="47.983097"
     inkscape:document-units="mm"
     inkscape:current-layer="layer1"
     showgrid="false"
     inkscape:window-width="1916"
     inkscape:window-height="1006"
     inkscape:window-x="-6"
     inkscape:window-y="1"
     inkscape:window-maximized="1"
     inkscape:showpageshadow="false"
     inkscape:pagecheckerboard="true"
     fit-margin-top="0"
     fit-margin-left="0"
     fit-margin-right="0"
     fit-margin-bottom="0" />
  <metadata
     id="metadata3721">
    <rdf:RDF>
      <cc:Work
         rdf:about="">
        <dc:format>image/svg+xml</dc:format>
        <dc:type
           rdf:resource="http://purl.org/dc/dcmitype/StillImage" />
        <dc:title></dc:title>
      </cc:Work>
    </rdf:RDF>
  </metadata>
  <g
     inkscape:label="Layer 1"
     inkscape:groupmode="layer"
     id="layer1"
     transform="translate(0,-269.51561)">
    <g
       transform="matrix(0.26458333,0,0,0.26458333,259.29166,6095.9051)"
       id="g3721">
      <circle
         r="50"
         id="Ellipse_386"
         data-name="Ellipse 386"
         class="cls-1"
         cx="-929.70001"
         cy="-21968.602"
         style="fill:#ffffff;stroke-width:0.96339113" />
      <path
         id="Path_1766"
         data-name="Path 1766"
         class="cls-2"
         d="m -928.1,-22021 a 51.9,51.9 0 0 0 -51.9,51.8 52.6,52.6 0 0 0 0.8,8.9 l 30.4,-38.4 a 1.612,1.612 0 0 1 1.3,-0.6 h 10.1 a 1.568,1.568 0 0 1 1.4,0.9 l 15.8,38.4 15.8,-38.2 a 1.416,1.416 0 0 1 1.4,-0.9 h 9.9 a 1.538,1.538 0 0 1 1.5,1.5 v 49.5 a 1.538,1.538 0 0 1 -1.5,1.5 h -6.9 a 1.538,1.538 0 0 1 -1.5,-1.5 v -34 l -14.2,34.5 a 1.416,1.416 0 0 1 -1.4,0.9 h -6.2 a 1.568,1.568 0 0 1 -1.4,-0.9 l -14.2,-34.5 v 33.9 a 1.538,1.538 0 0 1 -1.5,1.5 h -6.9 a 1.538,1.538 0 0 1 -1.5,-1.5 v -36.5 l -11.7,14.7 h 9.2 a 1.538,1.538 0 0 1 1.5,1.5 v 5.1 a 1.538,1.538 0 0 1 -1.5,1.5 H -967 l -9.4,11.9 a 51.939,51.939 0 1 0 48.3,-71 z"
         inkscape:connector-curvature="0"
         style="fill:#0f73a5" />
    </g>
  </g>
</svg>
