<?xml version="1.0" encoding="UTF-8" standalone="no"?>
<svg
   xmlns:dc="http://purl.org/dc/elements/1.1/"
   xmlns:cc="http://creativecommons.org/ns#"
   xmlns:rdf="http://www.w3.org/1999/02/22-rdf-syntax-ns#"
   xmlns:svg="http://www.w3.org/2000/svg"
   xmlns="http://www.w3.org/2000/svg"
   xmlns:sodipodi="http://sodipodi.sourceforge.net/DTD/sodipodi-0.dtd"
   xmlns:inkscape="http://www.inkscape.org/namespaces/inkscape"
   viewBox="-980 -22021 492.4 103.836"
   version="1.1"
   id="svg16"
   sodipodi:docname="login-am-logo-dark.svg"
   inkscape:version="0.91 r13725">
  <metadata
     id="metadata20">
    <rdf:RDF>
      <cc:Work
         rdf:about="">
        <dc:format>image/svg+xml</dc:format>
        <dc:type
           rdf:resource="http://purl.org/dc/dcmitype/StillImage" />
        <dc:title />
      </cc:Work>
    </rdf:RDF>
  </metadata>
  <sodipodi:namedview
     pagecolor="#000000"
     bordercolor="#666666"
     borderopacity="1"
     objecttolerance="10"
     gridtolerance="10"
     guidetolerance="10"
     inkscape:pageopacity="1"
     inkscape:pageshadow="2"
     inkscape:window-width="2560"
     inkscape:window-height="1377"
     id="namedview18"
     showgrid="false"
     showborder="false"
     inkscape:showpageshadow="false"
     inkscape:pagecheckerboard="true"
     inkscape:zoom="7.8560995"
     inkscape:cx="476.9964"
     inkscape:cy="49.956685"
     inkscape:window-x="1912"
     inkscape:window-y="-8"
     inkscape:window-maximized="1"
     inkscape:current-layer="svg16" />
  <defs
     id="defs4">
    <style
       id="style2">
      .cls-1 {
        fill: #fff;
      }

      .cls-2 {
        fill: #0f73a5;
      }
    </style>
  </defs>
  <path
     style="fill:#565656;fill-opacity:1"
     inkscape:connector-curvature="0"
     d="m -803,-21950.5 v 4.2 h -30.4 v -45.3 h 4.7 v 41.1 z"
     class="cls-1"
     data-name="Path 1759"
     id="Path_1759" />
  <path
     style="fill:#565656;fill-opacity:1"
     inkscape:connector-curvature="0"
     d="m -750.9,-21968.9 c 0,12.9 -10.7,23.3 -23.9,23.3 a 23.5,23.5 0 0 1 -23.8,-23.3 c 0,-12.9 10.7,-23.3 23.8,-23.3 13.1,0 23.9,10.4 23.9,23.3 z m -42.8,0 a 19,19 0 1 0 19.1,-18.9 h -0.1 a 18.949,18.949 0 0 0 -19,18.8 z"
     class="cls-1"
     data-name="Path 1760"
     id="Path_1760" />
  <path
     style="fill:#565656;fill-opacity:1"
     inkscape:connector-curvature="0"
     d="m -699.4,-21986.1 -3,3.2 a 20.175,20.175 0 0 0 -13.4,-5.1 19.038,19.038 0 1 0 -2.4,38 h 2.1 a 21.461,21.461 0 0 0 14.3,-5.1 v -10.9 h -14 v -3.5 h 18.5 v 16.9 a 28.789,28.789 0 0 1 -18.8,7 c -13.2,0 -23.9,-10.4 -23.9,-23.3 0,-13.5 11.1,-23.4 24.1,-23.3 a 25.472,25.472 0 0 1 16.5,6.1 z"
     class="cls-1"
     data-name="Path 1761"
     id="Path_1761" />
  <path
     style="fill:#565656;fill-opacity:1"
     inkscape:connector-curvature="0"
     d="m -682.8,-21946.3 v -45.3 h 4.7 v 45.3 z"
     class="cls-1"
     data-name="Path 1762"
     id="Path_1762" />
  <path
     style="fill:#565656;fill-opacity:1"
     inkscape:connector-curvature="0"
     d="m -629.2,-21946.3 -29.7,-38.1 v 38.1 h -4.6 v -45.3 h 5.1 l 29.7,38.1 v -38.1 h 4.6 v 45.3 z"
     class="cls-1"
     data-name="Path 1763"
     id="Path_1763" />
  <path
     style="fill:#565656;fill-opacity:1"
     inkscape:connector-curvature="0"
     d="m -559.4,-21946.3 -4.1,-10 h -21 l -4.1,10 h -10 l 19.1,-45.3 h 11 l 19.2,45.3 z m -6.5,-16.7 -8.2,-19.3 -8.1,19.3 z"
     class="cls-1"
     data-name="Path 1764"
     id="Path_1764" />
  <path
     style="fill:#565656;fill-opacity:1"
     inkscape:connector-curvature="0"
     d="m -495.8,-21946.3 v -34.2 l -17.2,28.9 h -3.1 l -17.2,-28.9 v 34.2 h -8.3 v -45.3 h 11.1 l 15.9,26.5 15.9,-26.5 h 11.1 v 45.3 z"
     class="cls-1"
     data-name="Path 1765"
     id="Path_1765" />
  <g
     id="g3721">
    <circle
       r="50"
       id="Ellipse_386"
       data-name="Ellipse 386"
       class="cls-1"
       cx="-929.70001"
       cy="-21968.602"
       style="fill:#ffffff;stroke-width:0.96339113" />
    <path
       id="Path_1766"
       data-name="Path 1766"
       class="cls-2"
       d="m -928.1,-22021 a 51.9,51.9 0 0 0 -51.9,51.8 52.6,52.6 0 0 0 0.8,8.9 l 30.4,-38.4 a 1.612,1.612 0 0 1 1.3,-0.6 h 10.1 a 1.568,1.568 0 0 1 1.4,0.9 l 15.8,38.4 15.8,-38.2 a 1.416,1.416 0 0 1 1.4,-0.9 h 9.9 a 1.538,1.538 0 0 1 1.5,1.5 v 49.5 a 1.538,1.538 0 0 1 -1.5,1.5 h -6.9 a 1.538,1.538 0 0 1 -1.5,-1.5 v -34 l -14.2,34.5 a 1.416,1.416 0 0 1 -1.4,0.9 h -6.2 a 1.568,1.568 0 0 1 -1.4,-0.9 l -14.2,-34.5 v 33.9 a 1.538,1.538 0 0 1 -1.5,1.5 h -6.9 a 1.538,1.538 0 0 1 -1.5,-1.5 v -36.5 l -11.7,14.7 h 9.2 a 1.538,1.538 0 0 1 1.5,1.5 v 5.1 a 1.538,1.538 0 0 1 -1.5,1.5 H -967 l -9.4,11.9 a 51.939,51.939 0 1 0 48.3,-71 z"
       inkscape:connector-curvature="0"
       style="fill:#0f73a5" />
  </g>
</svg>
